<svg width="390" height="844" viewBox="0 0 390 844" fill="none" xmlns="http://www.w3.org/2000/svg">
<g clip-path="url(#clip0_23_2359)">
<rect width="390" height="844" fill="#0C3128"/>
<path d="M-9.17868 17.7509C-9.56613 18.6941 -9.01347 21.1757 -7.43996 25.5538C-3.58487 36.2831 -3.77454 41.1632 -8.97562 65.0242C-10.3664 71.4045 -11.5374 78.6273 -11.578 81.0748C-11.6498 85.4907 -10.2125 92.5493 -8.61908 95.5941L-7.78964 97.1792L-10.2402 96.2127C-11.5884 95.681 -16.9141 92.315 -22.0754 88.7319C-30.6758 82.7616 -31.9779 81.5923 -37.6586 74.736C-44.1829 66.8617 -46.8904 64.5001 -49.2973 64.5827C-51.5782 64.6594 -52.5769 65.5849 -53.2402 68.2264C-54.0184 71.3269 -53.4294 72.1023 -41.7052 83.4072C-24.466 100.031 -9.61575 108.774 6.76199 111.942C10.2695 112.622 13.1164 113.281 13.0885 113.409C13.0622 113.537 5.79588 115.349 -3.05559 117.435C-28.67 123.473 -36.2125 126.087 -41.6169 130.8C-46.1318 134.736 -47.5853 137.505 -49.9331 146.64C-51.1182 151.252 -52.5449 156.256 -53.1028 157.76C-54.1042 160.459 -54.092 160.513 -52.165 161.832C-49.5475 163.621 -45.3981 164.344 -40.5008 163.861C-34.5329 163.273 -25.6136 158.118 -17.2259 150.411C-11.9024 145.52 -8.88333 143.371 4.13244 135.206C12.4696 129.976 19.3411 125.789 19.4023 125.903C19.4646 126.03 19.0178 128.657 18.4117 131.77C16.8216 139.935 17.1128 141.78 21.2983 150.068C23.4104 154.251 25.1706 158.63 25.6119 160.802C27.1907 168.564 30.5422 172.289 38.1153 174.699C44.5364 176.741 46.5949 178.535 49.0969 184.265C51.6341 190.076 53.4951 191.553 56.069 189.799C61.0989 186.372 64.1717 176.301 63.399 165.774C62.8588 158.411 63.1619 156.835 66.4594 149.812C69.3672 143.622 69.6221 140.107 67.4544 136.099C65.1402 131.82 62.2813 130.134 53.4953 127.864C49.2989 126.78 44.9038 125.234 43.7286 124.43L41.5918 122.968L43.8941 123.096C46.1755 123.224 51.3467 123.275 58.3152 123.198C60.3023 123.182 64.4519 124.093 67.5369 125.233C79.9842 129.837 84.8463 130.158 96.2506 127.127C99.5979 126.237 103.863 125.438 105.729 125.348C107.596 125.271 111.83 125.056 115.139 124.898C122.082 124.566 126.799 122.393 127.437 119.231C128.018 116.346 126.849 115.392 120.955 113.943C114.969 112.473 113.865 111.675 108.685 105.098C103.516 98.5335 99.9715 96.9201 90.746 96.9304C84.117 96.9436 81.324 96.2737 72.42 92.5604C68.5942 90.9654 64.5508 89.5571 63.4347 89.43C61.4309 89.2 61.4771 89.1537 67.0692 85.7076C72.4038 82.4202 72.9229 81.9224 75.9872 77.1589C80.5667 70.0393 82.2062 66.0644 85.1902 54.8436C87.2431 47.1237 87.6078 44.6568 86.8915 43.3322C85.2991 40.3881 84.0177 40.704 79.2514 45.2161C71.0408 52.9879 67.1968 54.5559 57.516 54.0831C50.8404 53.7559 48.2906 54.5046 42.5887 58.4686C38.9811 60.9761 36.9431 62.9343 34.6419 66.1038C30.9514 71.1874 25.8618 81.9901 24.5711 87.4791C24.0618 89.6467 23.4207 91.5563 23.147 91.725C22.4066 92.18 20.3766 86.2861 19.5085 81.159C18.61 75.8518 18.8823 69.7871 20.4369 60.4952C22.6993 46.9723 21.775 38.7397 17.0127 29.9939C12.7526 22.1715 6.4764 17.6918 -2.78566 15.8647C-6.81343 15.0697 -8.25409 15.504 -9.17868 17.7509Z" fill="#05503A"/>
<path d="M356.434 187.167C359.225 168.112 357.767 146.965 353.224 140.595C350.45 136.705 348.487 135.629 344.183 135.629C334.872 135.629 332.732 141.856 326.492 187.105C323.371 209.744 320.225 222.354 315.262 232.131C309.386 243.706 308.32 244.19 295.195 241.231C273.918 236.436 257.582 225.829 250.924 212.491C246.504 203.638 245.787 198.375 248.349 193.596C250.541 189.505 266.948 176.719 287.064 163.421C307.355 150.007 314.449 142.616 314.449 134.885C314.449 122.512 304.433 121.078 287.758 131.065C272.148 140.413 247.685 158.695 239.403 167.201C218.616 173.894 231.4 140.982 236.575 135.897C262.685 110.316 278.877 103.355 295.207 95.3407C311.537 87.3259 303.106 80.0054 291.319 80.0054C261.994 89.8188 244.437 94.3346 221.392 117.628C206.604 125.251 209.93 98.2214 217.04 83.2844C220.151 75.5565 227.653 71.9787 233.649 69.0196C244.581 63.6493 260.018 57.3652 268.758 55.1183C285.585 48.283 313.077 44.4657 307.315 32.9014C300.328 19.869 286.555 22.2324 239.113 41.4823C223.425 47.5849 228.856 28.5591 237.241 14.1045C245.016 0.699821 254.253 -4.99471 268.267 -7.61855C301.57 -13.6306 339.636 8.08376 339.023 -2.70464C339.023 -10.3219 333.433 -13.2688 320.935 -17.931C304.451 -20.8157 291.808 -22.0168 277.829 -22.0168C253.551 -18.5994 257.311 -29.6655 272.844 -41.7721C283.616 -49.8307 295.368 -48.1121 314.693 -39.8566C334.019 -31.5991 340.309 -26.1353 342.996 -31.6238C345.683 -37.1122 323.512 -51.1941 313.145 -60.6472C302.778 -70.0998 356.207 -78.2705 363.202 -77.9931C382.003 -77.1438 386.592 -75.3698 398.288 -64.4492C408.668 -54.7574 415.141 -40.41 414.528 -28.4521C413.543 -9.22376 413.605 -8.82442 418.205 -4.87633C423.007 -0.750336 430.062 0.0338364 433.944 -3.1172C435.305 -4.22282 439.774 -9.57004 443.875 -15.0002C454.507 -29.0798 459.985 -33.2786 467.724 -33.2786C481.152 -33.2786 496.619 -20.0234 503.112 -2.95155C508.432 11.0371 517.376 47.7723 518.562 60.5046C518.174 81.8914 485.943 42.8757 472.167 36.8797C464.596 33.7739 459.479 35.8898 459.479 42.1295C459.479 48.2853 467.295 58.1176 494.238 85.8533C518.509 110.839 519.982 113.638 518.662 132.269C517.389 150.212 514.602 159.706 510.103 161.413C506.583 162.75 505.068 166.158 502.258 179.057C501.38 183.087 491.691 194.326 485.154 198.896C466.245 203.55 463.502 134.42 459.227 122.12C448.052 93.2343 441.44 84.2477 434.206 88.1124C429.118 90.8313 429.964 96.6757 439.631 125.579C451.522 161.134 450.257 170.267 450.456 194.338C450.587 209.318 449.968 215.311 447.734 221.093C442.014 232.857 406.759 250.277 399.853 243.399C393.684 236.191 412.599 197.083 413.549 182.273C414.796 160.934 413.579 137.864 409.9 125.548C405.117 109.534 393.035 101.051 386.023 108.785C381.414 113.869 381.359 120.598 385.741 142.885C392.735 178.445 391.514 204.997 384.5 228.576C380.742 241.207 379.839 241.814 358.632 245.979C314.915 246.753 347.983 226.116 356.434 187.167Z" fill="#05503A"/>
<path d="M473.111 803.804C462.453 889.6 371.876 839.567 326.547 875.621C287.515 906.665 251.135 916.452 216.492 913.755C182.882 913.755 164.021 896.802 139.379 881.719C93.8967 854.16 46.0945 866.225 -1.77111 851.036C-72.918 827.369 -65.3263 725.456 66.1212 724.63C124.716 727.157 148.547 732.422 196.734 727.73C244.921 723.038 275.643 644.947 351.106 694.179C390.29 721.447 398.112 687.468 433.989 678.291C477.06 667.679 522.337 677.948 523.948 724.653C524.038 784.979 496.7 756.296 473.111 803.804Z" fill="#05503A"/>
<path d="M-157.848 732.806C-129.568 650.832 -51.3675 718.763 0.481552 692.81C45.1274 670.462 82.7543 668.422 116.085 678.272C148.964 685.269 163.89 705.818 184.859 725.743C223.62 762.242 272.896 760.342 316.562 785.2C381.241 823.217 352.605 921.644 223.837 895.124C167.039 880.458 144.821 870.337 96.7028 864.922C48.585 859.507 2.27754 929.749 -61.3031 865.747C-93.9622 830.843 -108.686 862.56 -145.694 864.106C-190.039 865.563 -232.199 846.078 -224.054 799.906C-211.591 740.691 -190.812 774.519 -157.848 732.806Z" fill="#078F47"/>
</g>
<defs>
<clipPath id="clip0_23_2359">
<rect width="390" height="844" fill="white"/>
</clipPath>
</defs>
</svg>
